<svg width="40" height="40" viewBox="0 0 40 40" fill="none" xmlns="http://www.w3.org/2000/svg">
  <path d="M27.5 13.5C27.5 10 24.5 7 21 7H14C12.5 7 11.2 8.1 11 9.6L8 26.5C7.9 27.2 8.4 27.8 9.1 27.8H13.5L14.5 22.5L14.6 21.9C14.8 20.4 16.1 19.3 17.6 19.3H19.5C23.5 19.3 26.8 16.7 27.5 13.5Z" fill="#003087"/>
  <path d="M28.5 11.2C28.3 10.9 28.1 10.7 27.8 10.5C27.2 13.9 24.1 16.6 20.2 16.6H18.3C16.8 16.6 15.5 17.7 15.3 19.2L14 26.5C13.9 27.2 14.4 27.8 15.1 27.8H19.2C20.5 27.8 21.6 26.9 21.8 25.6L21.9 24.9L22.8 19.6L22.9 18.9C23.1 17.6 24.2 16.7 25.5 16.7H26.3C29.9 16.7 32.8 14.2 33.4 11.2C33.4 11.2 33.4 11.2 33.4 11.2C31.9 11.2 30.1 11.2 28.5 11.2Z" fill="#009CDE"/>
</svg>