<svg width="40" height="40" viewBox="0 0 40 40" fill="none" xmlns="http://www.w3.org/2000/svg">
  <path d="M20 10C13.5 10 8.5 14.5 8.5 20C8.5 25.5 13.5 30 20 30C26.5 30 31.5 25.5 31.5 20C31.5 14.5 26.5 10 20 10ZM23.5 23C22.5 24 21 24.5 19 24.5C15 24.5 12.5 22 12.5 18.5C12.5 15 15.5 12.5 19.5 12.5C21.5 12.5 23 13 24 13.5C24 13.5 24 13.5 24 13.5C24 13.5 24 13.5 24 13.5L23 17C23 17 23 17 23 17C22.5 16.5 21.5 16 20 16C18 16 17 17 17 18.5C17 20 18 21.5 20.5 21.5C22 21.5 23 21 23.5 20.5L23.5 23Z" fill="#635BFF"/>
</svg>