<svg width="24" height="24" viewBox="0 0 24 24" fill="none" xmlns="http://www.w3.org/2000/svg">
  <path d="M17.05 12.45C17.07 15.05 19.2 15.95 19.2 15.95C19.2 15.95 18.5 18.1 16.8 19.2C15.3 20.2 13.8 20.1 12.7 19.2C11.5 18.2 10.1 18.3 8.9 19.2C7.5 20.2 6.1 20.1 4.6 19.2C2.9 18.1 2.2 15.9 2.2 13.2C2.2 8.3 5.8 5.9 5.8 5.9C7.3 4.8 8.9 4.9 10 5.8C10.9 6.5 12 6.5 12.9 5.8C14.2 4.8 16 4.8 17.5 5.9C17.5 5.9 17.05 8.8 17.05 12.45Z" fill="black"/>
  <path d="M14.5 3.5C14.5 4.7 13.5 5.8 12.3 5.8C12.2 5.8 12.2 5.8 12.2 5.8C12.2 5.8 12.2 5.8 12.2 5.8C12.2 4.6 13.2 3.5 14.4 3.5C14.5 3.5 14.5 3.5 14.5 3.5Z" fill="black"/>
</svg>