<svg width="24" height="24" viewBox="0 0 24 24" fill="none" xmlns="http://www.w3.org/2000/svg">
  <path d="M19.27 5.33C17.94 4.71 16.5 4.26 15 4c-.09.16-.18.36-.25.54-1.59-.24-3.2-.24-4.79 0-.07-.18-.16-.38-.25-.54-1.5.26-2.94.71-4.27 1.33-2.6 3.91-3.31 7.71-2.96 11.46 1.8 1.34 3.95 2.15 6.18 2.21.5-.68.94-1.4 1.32-2.16-.72-.27-1.41-.6-2.07-1 .08-.06.16-.12.23-.18 1.74.8 3.63 1.2 5.54 1.2s3.8-.4 5.54-1.2c.07.06.15.12.23.18-.66.4-1.35.73-2.07 1 .38.76.82 1.48 1.32 2.16 2.23-.06 4.38-.87 6.18-2.21.41-4.24-.71-8.01-2.96-11.46zM8.15 14.31c-1.17 0-2.14-1.08-2.14-2.42 0-1.33.94-2.42 2.14-2.42s2.18 1.09 2.14 2.42c0 1.34-.94 2.42-2.14 2.42zm7.7 0c-1.17 0-2.14-1.08-2.14-2.42 0-1.33.94-2.42 2.14-2.42s2.18 1.09 2.14 2.42c0 1.34-.94 2.42-2.14 2.42z" fill="#5865F2"/>
</svg>