<svg width="24" height="24" viewBox="0 0 24 24" fill="none" xmlns="http://www.w3.org/2000/svg">
  <path d="M12 2C6.48 2 2 6.48 2 12s4.48 10 10 10 10-4.48 10-10S17.52 2 12 2zm4.97 14.77c-.27.27-.61.39-1.03.46-.42.07-.93.12-1.5.2-.28.04-.55.2-.76.44-.21.24-.36.57-.48.93-.22.7-.55 1.1-1.2 1.1-.65 0-.98-.4-1.2-1.1-.12-.36-.27-.69-.48-.93-.21-.24-.48-.4-.76-.44-.57-.08-1.08-.13-1.5-.2-.42-.07-.76-.19-1.03-.46-.43-.43-.44-1.03-.03-1.47.42-.45 1.11-.47 1.64-.19.25.13.46.31.63.52.37.46.79.9 1.35 1.06.96.28 1.9.04 2.63-.34.33-.17.6-.4.82-.66.21-.25.42-.46.65-.6.55-.32 1.24-.3 1.68.14.42.44.42 1.04 0 1.47z" fill="#FFFC00"/>
</svg>