<svg width="24" height="24" viewBox="0 0 24 24" fill="none" xmlns="http://www.w3.org/2000/svg">
  <path d="M12 2C6.48 2 2 6.48 2 12s4.48 10 10 10 10-4.48 10-10S17.52 2 12 2zm4.64 6.8c-.15 1.58-.8 5.42-1.13 7.19-.14.75-.42 1-.68 1.03-.58.05-1.02-.38-1.58-.75-.88-.58-1.38-.94-2.23-1.5-.99-.65-.35-1.01.22-1.59.15-.15 2.71-2.48 2.76-2.69.01-.03.01-.14-.05-.2-.06-.06-.18-.04-.25-.02-.11.02-1.89 1.2-5.34 3.53-.5.35-.96.52-1.37.51-.45-.01-1.32-.25-1.97-.46-.79-.25-1.42-.38-1.37-.8.02-.22.27-.44.74-.67 2.92-1.27 4.86-2.11 5.83-2.51 2.78-1.15 3.35-1.35 3.73-1.36.08 0 .27.02.39.12.1.09.13.2.14.29-.02.08 0 .21-.01.33z" fill="#0088CC"/>
</svg>