<svg width="24" height="24" viewBox="0 0 24 24" fill="none" xmlns="http://www.w3.org/2000/svg">
  <path d="M19.077 4.928C17.191 3.041 14.683 2 12.006 2 6.798 2 2.548 6.193 2.541 11.393c-.002 1.738.454 3.44 1.323 4.95L2.5 21.5l5.242-1.328c1.45.794 3.094 1.214 4.778 1.215h.004c5.206 0 9.461-4.195 9.468-9.399.003-2.516-.974-4.886-2.86-6.773zM12.022 19.874h-.003c-1.486 0-2.943-.4-4.213-1.154l-.302-.18-3.112.789.835-3.032-.196-.313c-.827-1.32-1.263-2.838-1.261-4.396.006-4.365 3.562-7.93 7.94-7.93 2.12 0 4.112.83 5.608 2.337 1.495 1.506 2.317 3.504 2.314 5.626-.007 4.366-3.562 7.938-7.922 7.938zM16.7 14.237c-.244-.122-1.442-.711-1.665-.793-.223-.081-.386-.122-.549.122-.163.244-.634.793-.777.956-.143.163-.286.183-.53.061-.905-.423-1.664-1.002-2.307-1.705-.173-.189-.46-.494-.08-.912.38-.418.414-.477.552-.78.139-.303.07-.568-.034-.801-.105-.233-.922-2.226-1.264-2.277-.333-.05-.564-.053-.8.053-.235.106-1.001.978-1.001 2.386 0 1.408 1.025 2.767 1.167 2.958.143.191 2.015 3.077 4.882 4.217.682.272 1.214.435 1.629.557.683.202 1.304.173 1.796.105.548-.075 1.442-.589 1.645-1.158.203-.569.203-1.058.142-1.158-.06-.101-.224-.163-.468-.285z" fill="#25D366"/>
</svg>