<svg width="400" height="400" viewBox="0 0 400 400" fill="none" xmlns="http://www.w3.org/2000/svg">
  <circle cx="200" cy="200" r="180" stroke="url(#svip8Gradient)" stroke-width="30" fill="none"/>
  <circle cx="200" cy="200" r="145" stroke="url(#svip8Gradient)" stroke-width="3" stroke-dasharray="25 10" fill="none"/>
  <circle cx="200" cy="200" r="120" stroke="white" stroke-width="2" stroke-dasharray="15 15" fill="none"/>
  
  <!-- Triple Crown -->
  <path d="M150 70 L200 20 L250 70 L280 45 L265 100 L200 140 L135 100 L120 45 L150 70Z" fill="url(#svip8Gradient)"/>
  <path d="M150 330 L200 380 L250 330 L280 355 L265 300 L200 260 L135 300 L120 355 L150 330Z" fill="url(#svip8Gradient)"/>
  
  <!-- Diamond Cluster -->
  <circle cx="200" cy="200" r="40" fill="url(#svip8Gradient)" fill-opacity="0.3"/>
  <circle cx="200" cy="200" r="25" fill="white" fill-opacity="0.5"/>
  <circle cx="200" cy="200" r="15" fill="#FFD700"/>
  
  <!-- 8 Large Gems -->
  <circle cx="100" cy="100" r="20" fill="#FFD700"/>
  <circle cx="300" cy="100" r="20" fill="#EC4899"/>
  <circle cx="100" cy="300" r="20" fill="#8B5CF6"/>
  <circle cx="300" cy="300" r="20" fill="#3B82F6"/>
  <circle cx="150" cy="150" r="15" fill="#FF69B4"/>
  <circle cx="250" cy="150" r="15" fill="#FFA500"/>
  <circle cx="150" cy="250" r="15" fill="#00CED1"/>
  <circle cx="250" cy="250" r="15" fill="#FF4500"/>
  
  <!-- Sparkle Effects -->
  <path d="M50 200 L60 190 L70 200 L60 210 L50 200Z" fill="white"/>
  <path d="M350 200 L360 190 L370 200 L360 210 L350 200Z" fill="white"/>
  <path d="M200 50 L210 40 L220 50 L210 60 L200 50Z" fill="white"/>
  <path d="M200 350 L210 340 L220 350 L210 360 L200 350Z" fill="white"/>
  
  <text x="200" y="340" font-size="48" font-weight="bold" text-anchor="middle" fill="url(#svip8Gradient)" font-family="Arial">SVIP 8</text>
  
  <defs>
    <linearGradient id="svip8Gradient" x1="0%" y1="0%" x2="100%" y2="100%">
      <stop offset="0%" stop-color="#FFD700"/>
      <stop offset="20%" stop-color="#FF69B4"/>
      <stop offset="40%" stop-color="#8B5CF6"/>
      <stop offset="60%" stop-color="#3B82F6"/>
      <stop offset="80%" stop-color="#00CED1"/>
      <stop offset="100%" stop-color="#FF4500"/>
    </linearGradient>
  </defs>
</svg>