<svg width="24" height="24" viewBox="0 0 24 24" fill="none" xmlns="http://www.w3.org/2000/svg">
  <circle cx="12" cy="12" r="3" stroke="currentColor" stroke-width="2" fill="none"/>
  <path d="M19.4 15C19.2 15.4 18.8 15.8 18.4 16L16.5 17.2C16.1 17.4 15.9 17.8 15.8 18.2L15.5 20C15.4 20.6 14.9 21 14.3 21H9.7C9.1 21 8.6 20.6 8.5 20L8.2 18.2C8.1 17.8 7.9 17.4 7.5 17.2L5.6 16C5.2 15.8 4.8 15.4 4.6 15L3.3 12.9C3.1 12.5 3.1 12 3.3 11.6L4.6 9.5C4.8 9.1 5.2 8.7 5.6 8.5L7.5 7.3C7.9 7.1 8.1 6.7 8.2 6.3L8.5 4.5C8.6 3.9 9.1 3.5 9.7 3.5H14.3C14.9 3.5 15.4 3.9 15.5 4.5L15.8 6.3C15.9 6.7 16.1 7.1 16.5 7.3L18.4 8.5C18.8 8.7 19.2 9.1 19.4 9.5L20.7 11.6C20.9 12 20.9 12.5 20.7 12.9L19.4 15Z" stroke="currentColor" stroke-width="2" fill="none"/>
</svg>